<svg width="129" height="40" viewBox="0 0 129 40" fill="none" xmlns="http://www.w3.org/2000/svg">
<g clip-path="url(#clip0_1_162)">
<path d="M68.1004 10.05C68.1004 11.4915 66.9439 12.6527 65.5081 12.6527C64.0724 12.6527 62.9159 11.4915 62.9159 10.05C62.9159 8.60861 64.0325 7.44745 65.5081 7.44745C66.9837 7.48749 68.1004 8.64865 68.1004 10.05ZM57.4123 15.2953C57.4123 15.5355 57.4123 15.9359 57.4123 15.9359C57.4123 15.9359 56.1759 14.3343 53.5438 14.3343C49.1967 14.3343 45.8068 17.6577 45.8068 22.2623C45.8068 26.8268 49.1568 30.1902 53.5438 30.1902C56.2158 30.1902 57.4123 28.5485 57.4123 28.5485V29.2292C57.4123 29.5495 57.6515 29.7898 57.9706 29.7898H61.201V14.7347C61.201 14.7347 58.2498 14.7347 57.9706 14.7347C57.6515 14.7347 57.4123 15.015 57.4123 15.2953ZM57.4123 24.9449C56.814 25.8258 55.6176 26.5866 54.1819 26.5866C51.6295 26.5866 49.6753 24.985 49.6753 22.2623C49.6753 19.5395 51.6295 17.9379 54.1819 17.9379C55.5777 17.9379 56.8539 18.7387 57.4123 19.5796V24.9449ZM63.5938 14.7347H67.4224V29.7898H63.5938V14.7347ZM120.783 14.3343C118.151 14.3343 116.915 15.9359 116.915 15.9359V7.48749H113.086V29.7898C113.086 29.7898 116.038 29.7898 116.317 29.7898C116.636 29.7898 116.875 29.5095 116.875 29.2292V28.5485C116.875 28.5485 118.111 30.1902 120.744 30.1902C125.091 30.1902 128.48 26.8268 128.48 22.2623C128.48 17.6977 125.091 14.3343 120.783 14.3343ZM120.145 26.5465C118.67 26.5465 117.513 25.7858 116.915 24.9049V19.5395C117.513 18.7387 118.789 17.8979 120.145 17.8979C122.698 17.8979 124.652 19.4995 124.652 22.2222C124.652 24.9449 122.698 26.5465 120.145 26.5465ZM111.092 20.8609V29.8298H107.264V21.3013C107.264 18.8188 106.466 17.8178 104.313 17.8178C103.156 17.8178 101.96 18.4184 101.202 19.2993V29.7898H97.3732V14.7347H100.404C100.723 14.7347 100.962 15.015 100.962 15.2953V15.9359C102.079 14.7748 103.555 14.3343 105.03 14.3343C106.705 14.3343 108.101 14.8148 109.218 15.7758C110.574 16.8969 111.092 18.3383 111.092 20.8609ZM88.0809 14.3343C85.4487 14.3343 84.2124 15.9359 84.2124 15.9359V7.48749H80.3838V29.7898C80.3838 29.7898 83.335 29.7898 83.6142 29.7898C83.9332 29.7898 84.1725 29.5095 84.1725 29.2292V28.5485C84.1725 28.5485 85.4088 30.1902 88.041 30.1902C92.388 30.1902 95.7779 26.8268 95.7779 22.2623C95.8178 17.6977 92.4279 14.3343 88.0809 14.3343ZM87.4428 26.5465C85.9672 26.5465 84.8106 25.7858 84.2124 24.9049V19.5395C84.8106 18.7387 86.0868 17.8979 87.4428 17.8979C89.9952 17.8979 91.9493 19.4995 91.9493 22.2222C91.9493 24.9449 89.9952 26.5465 87.4428 26.5465ZM77.0737 14.3343C78.2302 14.3343 78.8284 14.5345 78.8284 14.5345V18.0981C78.8284 18.0981 75.6379 17.017 73.6439 19.2993V29.8298H69.8153V14.7347C69.8153 14.7347 72.7665 14.7347 73.0457 14.7347C73.3647 14.7347 73.604 15.015 73.604 15.2953V15.9359C74.3219 15.0951 75.8772 14.3343 77.0737 14.3343ZM37.3121 28.4284C37.1127 27.9479 36.9133 27.4274 36.7139 26.987C36.3949 26.2663 36.0758 25.5856 35.7967 24.9449L35.7568 24.9049C33.005 18.8989 30.0538 12.8128 26.943 6.80681L26.8234 6.56657C26.5043 5.96597 26.1853 5.32533 25.8662 4.68468C25.4674 3.96396 25.0686 3.2032 24.4305 2.48248C23.1543 0.880881 21.3198 0 19.3656 0C17.3716 0 15.5769 0.880881 14.2608 2.4024C13.6626 3.12312 13.2239 3.88388 12.8251 4.6046C12.5061 5.24525 12.187 5.88589 11.868 6.48649L11.7483 6.72673C8.67746 12.7327 5.68638 18.8188 2.93458 24.8248L2.89469 24.9049C2.61553 25.5455 2.29648 26.2262 1.97743 26.9469C1.77802 27.3874 1.57862 27.8679 1.37921 28.3884C0.860755 29.8699 0.701231 31.2713 0.900636 32.7127C1.33933 35.7157 3.33339 38.2382 6.08519 39.3594C7.1221 39.7998 8.19889 40 9.31556 40C9.63461 40 10.0334 39.96 10.3525 39.9199C11.6686 39.7598 13.0245 39.3193 14.3406 38.5586C15.9757 37.6376 17.5311 36.3163 19.2859 34.3944C21.0406 36.3163 22.6359 37.6376 24.2311 38.5586C25.5472 39.3193 26.9032 39.7598 28.2192 39.9199C28.5383 39.96 28.9371 40 29.2561 40C30.3728 40 31.4895 39.7998 32.4865 39.3594C35.2782 38.2382 37.2324 35.6757 37.6711 32.7127C37.9901 31.3113 37.8306 29.9099 37.3121 28.4284ZM19.3257 30.5105C17.1722 27.7878 15.7763 25.2252 15.2977 23.0631C15.0983 22.1421 15.0585 21.3413 15.1781 20.6206C15.2579 19.98 15.4971 19.4194 15.8162 18.9389C16.5739 17.8579 17.8501 17.1772 19.3257 17.1772C20.8013 17.1772 22.1174 17.8178 22.8353 18.9389C23.1543 19.4194 23.3936 19.98 23.4734 20.6206C23.593 21.3413 23.5531 22.1822 23.3537 23.0631C22.8752 25.1852 21.4793 27.7477 19.3257 30.5105ZM35.2383 32.3924C34.9592 34.4745 33.5633 36.2763 31.6091 37.0771C30.652 37.4775 29.6151 37.5976 28.5782 37.4775C27.5811 37.3574 26.5841 37.037 25.5472 36.4364C24.1115 35.6356 22.6758 34.3944 21.0007 32.5526C23.6329 29.3093 25.2282 26.3463 25.8264 23.7037C26.1055 22.4625 26.1454 21.3413 26.0258 20.3003C25.8662 19.2993 25.5073 18.3784 24.949 17.5776C23.7127 15.7758 21.6388 14.7347 19.3257 14.7347C17.0126 14.7347 14.9388 15.8158 13.7025 17.5776C13.1442 18.3784 12.7852 19.2993 12.6257 20.3003C12.4662 21.3413 12.5061 22.5025 12.8251 23.7037C13.4233 26.3463 15.0585 29.3493 17.6507 32.5926C16.0156 34.4344 14.54 35.6757 13.1043 36.4765C12.0674 37.0771 11.0703 37.3974 10.0733 37.5175C8.99651 37.6376 7.9596 37.4775 7.04234 37.1171C5.08816 36.3163 3.69232 34.5145 3.41315 32.4324C3.29351 31.4314 3.37327 30.4304 3.77208 29.3093C3.89172 28.9089 4.09113 28.5085 4.29054 28.028C4.5697 27.3874 4.88875 26.7067 5.2078 26.026L5.24768 25.9459C7.99949 19.98 10.9507 13.8939 14.0215 7.96797L14.1412 7.72773C14.4602 7.12713 14.7793 6.48649 15.0983 5.88589C15.4174 5.24524 15.7763 4.64464 16.215 4.12412C17.0525 3.16316 18.1692 2.64264 19.4055 2.64264C20.6418 2.64264 21.7585 3.16316 22.596 4.12412C23.0347 4.64464 23.3936 5.24524 23.7127 5.88589C24.0317 6.48649 24.3508 7.12713 24.6698 7.72773L24.7895 7.96797C27.8204 13.9339 30.7716 20.02 33.5234 25.986V26.026C33.8425 26.6667 34.1217 27.3874 34.4407 28.028C34.6401 28.5085 34.8395 28.9089 34.9592 29.3093C35.2782 30.3503 35.3979 31.3514 35.2383 32.3924Z" fill="#74787C"/>
</g>
<defs>
<clipPath id="clip0_1_162">
<rect width="127.66" height="40" fill="white" transform="translate(0.821289)"/>
</clipPath>
</defs>
</svg>
