<svg width="205" height="40" viewBox="0 0 205 40" fill="none" xmlns="http://www.w3.org/2000/svg">
<g clip-path="url(#clip0_1_151)">
<path d="M24.3278 7.51651L12.5312 15.033L24.3278 22.5495L12.5312 30.066L0.734619 22.5089L12.5312 14.9924L0.734619 7.51651L12.5312 0L24.3278 7.51651ZM12.4702 32.4835L24.2668 24.967L36.0634 32.4835L24.2668 40L12.4702 32.4835ZM24.3278 22.5089L36.1245 14.9924L24.3278 7.51651L36.0634 0L47.86 7.51651L36.0634 15.033L47.86 22.5495L36.0634 30.066L24.3278 22.5089Z" fill="#74787C"/>
<path d="M57.1143 7.51625H66.6532C72.7346 7.51625 77.7583 11.0307 77.7583 19.0551V20.7412C77.7583 28.8266 73.06 32.4629 66.8363 32.4629H57.1143V7.51625ZM62.4431 12.0465V27.9124H66.5312C69.9888 27.9124 72.3075 25.6574 72.3075 20.6397V19.3192C72.3075 14.3014 69.8668 12.0465 66.3482 12.0465H62.4431ZM80.5854 12.2902H84.8566L85.5481 16.983C86.3617 13.7935 88.4363 12.0871 92.199 12.0871H93.521V17.4705H91.3244C86.9922 17.4705 85.9346 18.9738 85.9346 23.24V32.5239H80.6668V12.2902H80.5854ZM94.5787 22.8134V22.2445C94.5787 15.4797 98.9109 11.7824 104.809 11.7824C110.829 11.7824 115.04 15.4797 115.04 22.2445V22.8134C115.04 29.4563 110.952 33.0317 104.809 33.0317C98.2803 32.9708 94.5787 29.4766 94.5787 22.8134ZM109.65 22.7524V22.2445C109.65 18.4863 107.758 16.2313 104.748 16.2313C101.799 16.2313 99.8464 18.3035 99.8464 22.2445V22.7524C99.8464 26.3888 101.738 28.4609 104.748 28.4609C107.758 28.3999 109.65 26.3888 109.65 22.7524ZM117.806 12.2902H122.199L122.707 16.1094C123.765 13.5498 126.023 11.7824 129.358 11.7824C134.504 11.7824 137.901 15.4797 137.901 22.3258V22.8946C137.901 29.5376 134.138 33.0521 129.358 33.0521C126.165 33.0521 123.968 31.6097 122.891 29.2938V39.5122H117.745L117.806 12.2902ZM132.552 22.7524V22.3055C132.552 18.2831 130.477 16.2923 127.711 16.2923C124.762 16.2923 122.809 18.5472 122.809 22.3055V22.6915C122.809 26.2669 124.701 28.5218 127.65 28.5218C130.68 28.4609 132.552 26.531 132.552 22.7524ZM145.691 28.7859L145.243 32.4832H140.728V5.52539H145.874V15.8657C147.013 13.2247 149.27 11.7824 152.463 11.7824C157.304 11.8433 160.884 15.175 160.884 21.8789V22.5086C160.884 29.2125 157.487 33.0521 152.341 33.0521C148.945 32.9708 146.748 31.4065 145.691 28.7859ZM155.474 22.5086V22.0008C155.474 18.3035 153.46 16.2313 150.633 16.2313C147.745 16.2313 145.731 18.5472 145.731 22.0617V22.5086C145.731 26.2669 147.684 28.4609 150.572 28.4609C153.663 28.4609 155.474 26.531 155.474 22.5086ZM163.141 22.8134V22.2445C163.141 15.4797 167.474 11.7824 173.372 11.7824C179.392 11.7824 183.602 15.4797 183.602 22.2445V22.8134C183.602 29.4563 179.453 33.0317 173.372 33.0317C166.843 32.9708 163.141 29.4766 163.141 22.8134ZM178.253 22.7524V22.2445C178.253 18.4863 176.362 16.2313 173.352 16.2313C170.402 16.2313 168.45 18.3035 168.45 22.2445V22.7524C168.45 26.3888 170.341 28.4609 173.352 28.4609C176.382 28.3999 178.253 26.3888 178.253 22.7524ZM190.497 22.0008L183.399 12.2902H189.48L193.568 18.3644L197.718 12.2902H203.738L196.538 21.9398L204.124 32.4832H198.165L193.528 25.7793L189.013 32.4832H182.789L190.497 22.0008Z" fill="#74787C"/>
</g>
<defs>
<clipPath id="clip0_1_151">
<rect width="203.39" height="40" fill="white" transform="translate(0.734619)"/>
</clipPath>
</defs>
</svg>
