<svg width="210" height="40" viewBox="0 0 210 40" fill="none" xmlns="http://www.w3.org/2000/svg">
<g clip-path="url(#clip0_1_164)">
<path d="M27.0226 4.13561C25.9672 3.54983 22.942 3.91202 19.3087 5.03677C12.9497 9.38349 7.58291 15.7873 7.2084 26.0708C7.14021 26.3166 6.51301 26.0373 6.38896 25.9613C4.67179 22.6699 3.99148 19.2042 5.42527 14.2045C5.69252 13.7596 4.81879 13.2118 4.6617 13.3683C4.34698 13.6835 3.03501 15.0812 2.16365 16.5926C-2.15555 24.0854 0.669014 33.686 8.22571 37.8876C15.7808 42.0957 25.3213 39.3812 29.528 31.8236C34.3946 23.1008 29.8757 5.72916 27.0227 4.13587L27.0226 4.13561Z" fill="#74787C"/>
<path d="M54.0656 8.32129C45.1076 8.32129 38.6053 14.9811 38.6053 24.1571C38.6053 33.4084 45.0906 39.8697 54.3777 39.8697C59.0687 39.8697 62.7826 38.4028 65.7362 35.3832C66.6183 34.4306 66.7132 33.5127 66.7132 33.1617C66.7132 31.6659 65.6009 30.5793 64.0682 30.5793C63.2957 30.5793 62.6495 30.8711 61.9083 31.5564C60.2359 33.1148 58.0334 34.7068 54.3777 34.7068C49.2943 34.7068 45.1601 30.8901 44.8997 25.9888H65.1319C67.3321 25.9888 68.4008 24.9602 68.4008 22.845C68.4008 22.2222 68.4008 21.7728 68.2755 20.8862C67.1856 13.0189 61.8741 8.32234 54.0662 8.32234L54.0656 8.32129ZM54.0656 13.2337C58.9231 13.2337 62.0401 16.3294 62.2324 21.3258H44.906C45.3609 16.7017 49.2704 13.2337 54.0654 13.2337H54.0656Z" fill="#74787C"/>
<path d="M87.72 8.32129C83.6507 8.32129 79.6215 10.6613 78.0474 13.9112V11.9027C78.0474 8.79128 75.636 8.63365 75.1531 8.63365C73.7243 8.63365 72.1973 9.49232 72.1973 11.9027V36.1613C72.1973 39.3923 74.764 39.5556 75.2783 39.5556C75.7926 39.5556 78.3606 39.3923 78.3606 36.1613V23.1569C78.3606 17.4987 81.5668 13.5467 86.1572 13.5467C90.6034 13.5467 92.7655 16.4646 92.7655 22.4682V36.1613C92.7655 39.3923 95.3334 39.5556 95.8477 39.5556C96.362 39.5556 98.9287 39.3923 98.9287 36.1613V20.5327C98.9287 14.6297 95.9841 8.32312 87.72 8.32312V8.32129Z" fill="#74787C"/>
<path d="M126.816 8.63452C125.391 8.63452 124.359 9.46526 123.744 11.0997L115.311 32.3042L106.943 11.0997C106.288 9.44074 105.263 8.63452 103.809 8.63452C102.109 8.63452 100.727 9.96042 100.727 11.5906C100.727 11.9941 100.772 12.5173 101.113 13.3345L110.804 36.2162C111.959 38.9766 113.858 39.5558 115.249 39.5558C116.638 39.5558 118.539 38.9766 119.696 36.2175L129.449 13.2086C129.783 12.4015 129.834 11.8089 129.834 11.5284C129.834 9.87938 128.535 8.63491 126.816 8.63491V8.63452Z" fill="#74787C"/>
<path d="M144.731 8.32189C140.789 8.32189 137.118 9.41975 134.395 11.4109C133.471 12.0481 133.022 12.843 133.022 13.8425C133.022 15.2188 134.073 16.2976 135.416 16.2976C135.998 16.2976 136.648 16.0662 137.245 15.648C139.586 14.0874 141.787 13.3596 144.168 13.3596C148.725 13.3596 151.341 15.6771 151.341 19.7187V20.3884C141.111 20.3995 130.707 21.6349 130.707 30.5341C130.707 36.939 136.18 39.8067 141.605 39.8067C145.925 39.8067 149.375 38.095 151.588 34.8538V36.4124C151.588 38.7333 153.147 39.5563 154.484 39.5563C154.765 39.5563 157.252 39.4679 157.252 36.4124V20.0927C157.252 12.7207 152.57 8.32031 144.731 8.32031L144.731 8.32189ZM150.044 24.9262H151.341V26.3459C151.341 31.539 148.034 34.8941 142.918 34.8941C141.53 34.8941 136.997 34.571 136.997 30.4088C136.997 25.4941 144.443 24.9262 150.044 24.9262Z" fill="#74787C"/>
<path d="M173.304 14.2343C176 14.2343 176.137 12.1359 176.137 11.7155C176.137 10.4678 175.392 9.13401 173.304 9.13401H167.759V3.52514C167.759 1.01969 166.133 0.130859 164.74 0.130859C164.226 0.130859 161.659 0.294122 161.659 3.52514V30.1598C161.659 36.3065 164.691 39.5553 170.428 39.5553C171.913 39.5553 173.36 39.2925 174.305 38.852C175.39 38.311 176.011 37.4211 176.011 36.4115C176.011 34.9873 174.978 33.9543 173.554 33.9543C173.279 33.9543 172.888 34.0225 172.456 34.1465C171.929 34.2786 171.571 34.3299 171.18 34.3299C168.845 34.3299 167.759 32.8061 167.759 29.5338V14.2317H173.304V14.2343Z" fill="#74787C"/>
<path d="M193.682 8.32129C184.361 8.32129 177.598 14.9286 177.598 24.0312C177.598 28.463 179.237 32.5023 182.21 35.4044C185.162 38.2832 189.236 39.8686 193.683 39.8686C202.888 39.8686 209.83 33.0601 209.83 24.0315C209.83 14.9288 203.038 8.32155 193.683 8.32155L193.682 8.32129ZM193.682 34.6426C187.29 34.6426 183.947 29.3041 183.947 24.0306C183.947 16.7838 188.993 13.4835 193.682 13.4835C198.371 13.4835 203.417 16.7838 203.417 24.0306C203.417 31.3222 198.371 34.6426 193.682 34.6426Z" fill="#74787C"/>
</g>
<defs>
<clipPath id="clip0_1_164">
<rect width="209.967" height="40" fill="white"/>
</clipPath>
</defs>
</svg>
