<svg width="129" height="40" viewBox="0 0 129 40" fill="none" xmlns="http://www.w3.org/2000/svg">
<g clip-path="url(#clip0_1_154)">
<path d="M16.6122 14.2727V18.5455H26.9235C26.6497 20.9091 25.8285 22.7273 24.551 23.9091C23.091 25.3636 20.7184 27 16.6122 27C10.3159 27 5.38834 21.9091 5.38834 15.6364C5.38834 9.36364 10.2246 4.27273 16.6122 4.27273C19.9884 4.27273 22.5435 5.63636 24.3685 7.36364L27.3797 4.36364C24.8247 1.90909 21.3572 0 16.6122 0C7.94336 0 0.643311 7 0.643311 15.6364C0.643311 24.2727 7.94336 31.2727 16.6122 31.2727C21.266 31.2727 24.8247 29.7273 27.5622 26.9091C30.391 24.0909 31.3035 20.0909 31.3035 16.9091C31.3035 15.9091 31.2123 15 31.121 14.2727H16.6122Z" fill="#74787C"/>
<path d="M44.0782 10.7275C38.5119 10.7275 33.8582 15.0003 33.8582 20.8184C33.8582 26.6366 38.4207 30.9094 44.0782 30.9094C49.7358 30.9094 54.2983 26.7275 54.2983 20.9094C54.2983 15.0003 49.7358 10.7275 44.0782 10.7275ZM44.0782 27.0003C40.9757 27.0003 38.3294 24.4548 38.3294 20.9094C38.3294 17.273 40.9757 14.8184 44.0782 14.8184C47.1807 14.8184 49.827 17.273 49.827 20.9094C49.827 24.4548 47.1807 27.0003 44.0782 27.0003Z" fill="#74787C"/>
<path d="M93.9927 13.0003H93.8102C92.8064 11.8184 90.8902 10.7275 88.4264 10.7275C83.3164 10.7275 78.9363 15.0912 78.9363 20.8184C78.9363 26.4548 83.3164 30.9094 88.4264 30.9094C90.8902 30.9094 92.8064 29.8184 93.8102 28.6366H93.9927V30.0912C93.9927 33.9094 91.8939 36.0003 88.6089 36.0003C85.8714 36.0003 84.2289 34.0912 83.4989 32.3639L79.6663 34.0003C80.7613 36.6366 83.7726 40.0003 88.7002 40.0003C93.9014 40.0003 98.3727 36.9094 98.3727 29.4548V11.273H94.1752V13.0003H93.9927ZM88.8827 27.0003C85.7801 27.0003 83.4989 24.3639 83.4989 20.9094C83.4989 17.3639 85.8714 14.8184 88.8827 14.8184C91.8939 14.8184 94.2664 17.4548 94.2664 21.0003C94.3577 24.4548 91.9852 27.0003 88.8827 27.0003Z" fill="#74787C"/>
<path d="M66.8 10.7275C61.2337 10.7275 56.5799 15.0003 56.5799 20.8184C56.5799 26.6366 61.1425 30.9094 66.8 30.9094C72.4575 30.9094 77.0201 26.7275 77.0201 20.9094C77.0201 15.0003 72.4575 10.7275 66.8 10.7275ZM66.8 27.0003C63.6975 27.0003 61.0512 24.4548 61.0512 20.9094C61.0512 17.273 63.6975 14.8184 66.8 14.8184C69.9025 14.8184 72.5488 17.273 72.5488 20.9094C72.5488 24.4548 69.9025 27.0003 66.8 27.0003Z" fill="#74787C"/>
<path d="M101.749 0.454102H106.129V30.9996H101.749V0.454102Z" fill="#74787C"/>
<path d="M119.634 27.0003C117.353 27.0003 115.802 26.0003 114.707 23.9094L128.303 18.3639L127.847 17.1821C127.025 14.9094 124.379 10.7275 119.178 10.7275C113.977 10.7275 109.597 14.8184 109.597 20.8184C109.597 26.4548 113.885 30.9094 119.634 30.9094C124.288 30.9094 126.934 28.0912 128.12 26.4548L124.653 24.1821C123.467 25.9094 121.915 27.0003 119.634 27.0003ZM119.36 14.5457C121.185 14.5457 122.737 15.4548 123.193 16.7275L114.068 20.5457C113.977 16.3639 117.079 14.5457 119.36 14.5457Z" fill="#74787C"/>
</g>
<defs>
<clipPath id="clip0_1_154">
<rect width="127.66" height="40" fill="white" transform="translate(0.643311)"/>
</clipPath>
</defs>
</svg>
