<svg width="134" height="40" viewBox="0 0 134 40" fill="none" xmlns="http://www.w3.org/2000/svg">
<path d="M32.3169 17.7641C25.974 13.993 15.5114 13.6463 9.4562 15.4861C8.4838 15.7813 7.45558 15.2318 7.16094 14.2584C6.86631 13.2845 7.41465 12.2558 8.38769 11.9599C15.3386 9.84741 26.8934 10.2556 34.1956 14.595C35.0704 15.1146 35.3573 16.2454 34.8387 17.1198C34.3199 17.9952 33.1894 18.2838 32.3169 17.7641ZM32.1092 23.3496C31.6644 24.0726 30.7203 24.2991 29.9991 23.8554C24.711 20.6012 16.6472 19.6585 10.3909 21.5596C9.57957 21.8051 8.72263 21.3472 8.47628 20.5364C8.23174 19.7242 8.6894 18.8679 9.49925 18.621C16.6462 16.4499 25.5308 17.5014 31.6045 21.2381C32.3256 21.6827 32.5526 22.6284 32.1092 23.3496ZM29.7014 28.7137C29.348 29.2941 28.5928 29.4762 28.0152 29.1224C23.3942 26.2951 17.5781 25.6564 10.7285 27.2228C10.0683 27.3744 9.41057 26.9601 9.25995 26.2995C9.10879 25.6388 9.52082 24.9803 10.1824 24.8296C17.6781 23.1141 24.108 23.8524 29.2947 27.0253C29.8729 27.3788 30.055 28.1351 29.7014 28.7137ZM20.677 0.300014C9.80949 0.300014 0.999207 9.11958 0.999207 19.9993C0.999207 30.8799 9.80949 39.6992 20.677 39.6992C31.545 39.6992 40.3548 30.8799 40.3548 19.9993C40.3548 9.11958 31.545 0.300014 20.677 0.300014Z" fill="#17BE74"/>
<path d="M54.5357 18.4857C51.1382 17.6745 50.5331 17.1052 50.5331 15.9093C50.5331 14.779 51.5961 14.0187 53.1766 14.0187C54.7087 14.0187 56.2276 14.5962 57.8205 15.7851C57.8686 15.8211 57.929 15.8355 57.9885 15.826C58.0479 15.8171 58.1003 15.7846 58.1353 15.7352L59.7943 13.3941C59.8624 13.2979 59.8439 13.1648 59.752 13.0912C57.8564 11.5685 55.7219 10.8282 53.2269 10.8282C49.5584 10.8282 46.996 13.0319 46.996 16.1855C46.996 19.5671 49.2064 20.7644 53.0262 21.6886C56.2774 22.4383 56.826 23.0663 56.826 24.1893C56.826 25.4334 55.7165 26.2069 53.9309 26.2069C51.9479 26.2069 50.3301 25.5382 48.5205 23.9693C48.4756 23.9307 48.4141 23.9129 48.3572 23.9161C48.2975 23.9211 48.2428 23.9488 48.2047 23.9947L46.3446 26.2109C46.2666 26.3029 46.2765 26.4402 46.3665 26.5197C48.4721 28.4014 51.0613 29.3955 53.8557 29.3955C57.8087 29.3955 60.3632 27.233 60.3632 23.8862C60.3632 21.0579 58.6751 19.4935 54.5357 18.4857Z" fill="#1A1A1A"/>
<path d="M72.1762 22.2772C72.1762 24.6657 70.7066 26.3322 68.6024 26.3322C66.5222 26.3322 64.953 24.5899 64.953 22.2772C64.953 19.9649 66.5222 18.2223 68.6024 18.2223C70.6728 18.2223 72.1762 19.9272 72.1762 22.2772ZM69.3067 15.1319C67.5932 15.1319 66.1878 15.8075 65.0289 17.1919V15.6336C65.0289 15.5106 64.9293 15.4104 64.8064 15.4104H61.7643C61.6414 15.4104 61.5421 15.5106 61.5421 15.6336V32.9477C61.5421 33.0707 61.6414 33.1709 61.7643 33.1709H64.8064C64.9293 33.1709 65.0289 33.0707 65.0289 32.9477V27.4826C66.188 28.7849 67.5937 29.421 69.3067 29.421C72.4904 29.421 75.7133 26.9674 75.7133 22.2772C75.7133 17.586 72.4904 15.1319 69.3067 15.1319Z" fill="#1A1A1A"/>
<path d="M83.9746 26.3569C81.7938 26.3569 80.1497 24.6027 80.1497 22.2769C80.1497 19.9413 81.7369 18.2464 83.9243 18.2464C86.1193 18.2464 87.7744 20.0005 87.7744 22.3279C87.7744 24.6632 86.1764 26.3569 83.9746 26.3569ZM83.9746 15.1315C79.8745 15.1315 76.6624 18.2923 76.6624 22.3279C76.6624 26.3197 79.8524 29.4473 83.9243 29.4473C88.039 29.4473 91.261 26.2972 91.261 22.2769C91.261 18.2701 88.0611 15.1315 83.9746 15.1315Z" fill="#1A1A1A"/>
<path d="M100.017 15.4097H96.6691V11.9832C96.6691 11.8602 96.5699 11.7602 96.447 11.7602H93.4052C93.2821 11.7602 93.182 11.8602 93.182 11.9832V15.4097H91.7193C91.5966 15.4097 91.4977 15.5099 91.4977 15.6329V18.2504C91.4977 18.3733 91.5966 18.4735 91.7193 18.4735H93.182V25.2464C93.182 27.9835 94.5428 29.3711 97.2264 29.3711C98.3177 29.3711 99.223 29.1455 100.076 28.6612C100.146 28.6224 100.189 28.5476 100.189 28.468V25.9755C100.189 25.8985 100.149 25.8261 100.083 25.7856C100.017 25.744 99.9343 25.7419 99.8664 25.7755C99.2804 26.0707 98.7138 26.2069 98.0806 26.2069C97.1047 26.2069 96.6691 25.7635 96.6691 24.7691V18.4735H100.017C100.14 18.4735 100.239 18.3733 100.239 18.2504V15.6329C100.239 15.5099 100.14 15.4097 100.017 15.4097Z" fill="#1A1A1A"/>
<path d="M111.68 15.424V15.0031C111.68 13.7651 112.154 13.213 113.218 13.213C113.852 13.213 114.361 13.3391 114.932 13.5296C115.002 13.5517 115.076 13.5407 115.133 13.4985C115.191 13.4564 115.225 13.3889 115.225 13.3174V10.751C115.225 10.6529 115.162 10.5661 115.067 10.5374C114.465 10.3579 113.693 10.1734 112.539 10.1734C109.729 10.1734 108.244 11.7575 108.244 14.7528V15.3974H106.782C106.659 15.3974 106.559 15.4974 106.559 15.6204V18.2512C106.559 18.3742 106.659 18.4743 106.782 18.4743H108.244V28.9212C108.244 29.0443 108.343 29.1443 108.465 29.1443H111.507C111.63 29.1443 111.73 29.0443 111.73 28.9212V18.4743H114.571L118.922 28.9185C118.428 30.0158 117.942 30.2342 117.279 30.2342C116.743 30.2342 116.179 30.0739 115.602 29.7578C115.547 29.7279 115.483 29.723 115.424 29.7411C115.366 29.7618 115.318 29.8049 115.293 29.8616L114.262 32.1262C114.213 32.2331 114.255 32.3589 114.357 32.4143C115.434 32.998 116.406 33.2471 117.606 33.2471C119.853 33.2471 121.094 32.1993 122.189 29.3812L127.467 15.7279C127.493 15.6592 127.486 15.5818 127.444 15.5207C127.402 15.4604 127.334 15.424 127.261 15.424H124.094C123.999 15.424 123.914 15.4842 123.883 15.5733L120.638 24.8507L117.085 15.5672C117.052 15.4809 116.969 15.424 116.877 15.424H111.68Z" fill="#1A1A1A"/>
<path d="M104.919 15.4098H101.876C101.753 15.4098 101.654 15.5101 101.654 15.6331V28.9205C101.654 29.0436 101.753 29.1436 101.876 29.1436H104.919C105.041 29.1436 105.141 29.0436 105.141 28.9205V15.6331C105.141 15.5101 105.041 15.4098 104.919 15.4098Z" fill="#1A1A1A"/>
<path d="M103.413 9.35989C102.208 9.35989 101.23 10.3368 101.23 11.5431C101.23 12.7504 102.208 13.7283 103.413 13.7283C104.618 13.7283 105.595 12.7504 105.595 11.5431C105.595 10.3368 104.618 9.35989 103.413 9.35989Z" fill="#1A1A1A"/>
<path d="M130.189 16.7322H129.632V17.4438H130.189C130.467 17.4438 130.633 17.3075 130.633 17.0878C130.633 16.8563 130.467 16.7322 130.189 16.7322ZM130.55 17.7473L131.156 18.5962H130.645L130.1 17.8176H129.632V18.5962H129.204V16.3462H130.206C130.728 16.3462 131.072 16.6138 131.072 17.0639C131.072 17.4327 130.859 17.6581 130.55 17.7473ZM130.076 15.5977C128.979 15.5977 128.149 16.4702 128.149 17.5391C128.149 18.6072 128.973 19.4682 130.065 19.4682C131.161 19.4682 131.992 18.5962 131.992 17.5269C131.992 16.4587 131.167 15.5977 130.076 15.5977ZM130.065 19.6826C128.861 19.6826 127.924 18.7145 127.924 17.5391C127.924 16.3634 128.873 15.3844 130.076 15.3844C131.28 15.3844 132.217 16.3524 132.217 17.5269C132.217 18.7025 131.268 19.6826 130.065 19.6826Z" fill="#1A1A1A"/>
</svg>
