<svg width="200" height="200" viewBox="0 0 200 200" fill="none" xmlns="http://www.w3.org/2000/svg">
<g opacity="0.2">
<path d="M89.2069 38.676H38.4256C34.1178 38.676 30.6131 42.1807 30.6131 46.4885V159.77C30.6131 164.078 34.1178 167.582 38.4256 167.582H54.0506C59.5916 167.582 61.7205 163.216 61.8561 160.088C61.8561 160.088 97.0194 46.6846 97.0194 46.4885C97.0194 42.1807 93.5147 38.676 89.2069 38.676ZM57.0655 159.139C57.0073 159.326 55.3103 158.891 57.9569 159.77C57.9569 159.78 56.805 151.548 56.3097 152.539C55.6784 153.801 54.2413 59.0342 52.5663 59.0342L40.8745 163.272C42.0844 164.565 67.5318 81.5144 67.5318 79.3605L34.5194 46.4885C34.5194 44.3346 43.7114 76.6801 45.8653 76.6801V164.91C47.9294 164.91 45.7274 139.281 45.8653 141.311L57.0655 159.139ZM167.332 38.676H116.551C112.243 38.676 108.738 42.1807 108.738 46.4885V159.77C108.738 164.078 112.243 167.582 116.551 167.582H132.176C137.717 167.582 139.846 163.216 139.981 160.088C139.981 160.088 175.144 46.6846 175.144 46.4885C175.144 42.1807 171.64 38.676 167.332 38.676ZM126.397 134.332C116.637 128.753 121.322 138.539 122.254 139.234C123.185 139.928 121.188 140.32 120.693 141.311C120.062 142.573 121.028 147.04 119.353 147.04L116.551 163.676C114.397 163.676 171.229 48.3752 171.229 46.2213L112.644 46.4885C112.644 44.3346 118.539 55.6838 120.693 55.6838H155.985C158.049 55.6838 171.091 44.1917 171.229 46.2213L126.397 134.332Z" fill="#000"/>
</g>
</svg>
