<svg width="50" height="50" viewBox="0 0 50 50" fill="none" xmlns="http://www.w3.org/2000/svg">
<g clip-path="url(#clip0_1_76)">
<path d="M25.0005 40.6657C16.3503 40.6657 9.31372 33.6291 9.31372 24.98C9.31372 16.3308 16.3503 9.29419 25.0005 9.29419C25.5402 9.29419 25.9778 9.73173 25.9778 10.2715V24.0027H39.7089C40.2487 24.0027 40.6863 24.4402 40.6863 24.98C40.6863 33.6291 33.6496 40.6657 25.0005 40.6657ZM24.0232 11.283C16.9074 11.7863 11.2683 17.7371 11.2683 24.98C11.2683 32.5512 17.4254 38.7111 25.0005 38.7111C32.2433 38.7111 38.1941 33.075 38.6965 25.9573H25.0005C24.4607 25.9573 24.0232 25.5197 24.0232 24.98V11.283Z" fill="black"/>
<path d="M39.709 22.1751H28.7827C28.2429 22.1751 27.8054 21.7376 27.8054 21.1978V10.2715C27.8054 9.73173 28.2429 9.29419 28.7827 9.29419C35.3537 9.30171 40.6787 14.6268 40.6863 21.1978C40.6863 21.7376 40.2487 22.1751 39.709 22.1751ZM29.76 20.2205H38.6838C38.2104 15.5019 34.4785 11.77 29.76 11.2967V20.2205ZM32.0009 38.8968C31.8246 38.8968 31.6516 38.8491 31.5002 38.7588C31.3488 38.6685 31.2246 38.5389 31.1409 38.3837L24.7063 26.4909L14.3469 35.0482C13.9307 35.392 13.3146 35.3334 12.9708 34.9172C12.627 34.5011 12.6856 33.885 13.1018 33.5412L24.3779 24.2265C24.795 23.8838 25.4109 23.9442 25.7535 24.3612C25.7939 24.4104 25.8295 24.4635 25.8595 24.5197L32.86 37.4592C33.1142 37.9353 32.9344 38.5274 32.4582 38.7816C32.3175 38.8568 32.1605 38.8963 32.0009 38.8968Z" fill="black"/>
<path d="M34.2448 17.5651C33.7051 17.565 33.2676 17.1274 33.2677 16.5876C33.2677 16.3942 33.3252 16.2052 33.4327 16.0444L41.2316 4.38713C41.3209 4.25365 41.4417 4.14423 41.5834 4.06855C41.725 3.99287 41.8831 3.95325 42.0437 3.95321H49.0139C49.5537 3.95321 49.9912 4.39075 49.9912 4.93051C49.9912 5.47028 49.5537 5.90782 49.0139 5.90782H42.5637L35.058 17.1312C34.9686 17.2648 34.8476 17.3744 34.7058 17.45C34.5639 17.5257 34.4056 17.5653 34.2448 17.5651ZM49.0139 1.95461H42.0437C41.504 1.95461 41.0664 1.51707 41.0664 0.977307C41.0664 0.43754 41.504 0 42.0437 0H49.0139C49.5537 0 49.9912 0.43754 49.9912 0.977307C49.9912 1.51707 49.5537 1.95461 49.0139 1.95461ZM15.7464 17.6228C15.5853 17.6229 15.4266 17.5831 15.2846 17.5071C15.1426 17.431 15.0215 17.321 14.9323 17.1869L7.42753 5.90782H0.977307C0.43754 5.90782 0 5.47028 0 4.93051C0 4.39075 0.43754 3.95321 0.977307 3.95321H7.94746C8.10841 3.95329 8.26684 3.99312 8.40869 4.06916C8.55054 4.1452 8.67142 4.2551 8.76058 4.38909L16.5595 16.1041C16.8585 16.5534 16.7367 17.1601 16.2873 17.4591C16.127 17.5657 15.9389 17.6227 15.7464 17.6228ZM7.94746 1.95461H0.977307C0.43754 1.95461 0 1.51707 0 0.977307C0 0.43754 0.43754 0 0.977307 0H7.94746C8.48723 0 8.92477 0.43754 8.92477 0.977307C8.92477 1.51707 8.48723 1.95461 7.94746 1.95461ZM17.7528 46.0468H10.7826C10.2429 46.0468 9.80532 45.6093 9.80532 45.0695C9.80532 44.5297 10.2429 44.0922 10.7826 44.0922H17.1556L22.7263 33.2333C22.9727 32.753 23.5619 32.5633 24.0422 32.8097C24.5226 33.056 24.7123 33.6453 24.4659 34.1256L18.6216 45.5151C18.5397 45.6751 18.4152 45.8093 18.2619 45.9031C18.1087 45.9969 17.9325 46.0466 17.7528 46.0468ZM17.7528 50H10.7826C10.2429 50 9.80532 49.5625 9.80532 49.0227C9.80532 48.4829 10.2429 48.0454 10.7826 48.0454H17.7528C18.2925 48.0454 18.7301 48.4829 18.7301 49.0227C18.7301 49.5625 18.2925 50 17.7528 50ZM49.011 46.0468H42.0525C41.8793 46.0468 41.7092 46.0007 41.5596 45.9133C41.41 45.8259 41.2864 45.7003 41.2013 45.5493L33.464 31.8338C33.1987 31.3637 33.3648 30.7675 33.8349 30.5022C34.3049 30.237 34.9012 30.403 35.1664 30.8731L42.6233 44.0922H49.011C49.5507 44.0922 49.9883 44.5297 49.9883 45.0695C49.9883 45.6093 49.5507 46.0468 49.011 46.0468ZM49.0227 50H42.0525C41.5128 50 41.0752 49.5625 41.0752 49.0227C41.0752 48.4829 41.5128 48.0454 42.0525 48.0454H49.0227C49.5625 48.0454 50 48.4829 50 49.0227C50 49.5625 49.5625 50 49.0227 50Z" fill="black"/>
</g>
<defs>
<clipPath id="clip0_1_76">
<rect width="50" height="50" fill="white"/>
</clipPath>
</defs>
</svg>
