<svg width="50" height="50" viewBox="0 0 50 50" fill="none" xmlns="http://www.w3.org/2000/svg">
<path d="M33.7891 0C33.2498 0 32.8125 0.437305 32.8125 0.976562V5.46875C32.8125 6.00801 33.2498 6.44531 33.7891 6.44531C34.3283 6.44531 34.7656 6.00801 34.7656 5.46875V0.976562C34.7656 0.437305 34.3283 0 33.7891 0ZM11.3281 30.4688C10.7891 30.4688 10.3516 30.9062 10.3516 31.4453C10.3516 31.9844 10.7891 32.4219 11.3281 32.4219C11.8672 32.4219 12.3047 31.9844 12.3047 31.4453C12.3047 30.9062 11.8672 30.4688 11.3281 30.4688Z" fill="black"/>
<path d="M47.4609 28.5156C47.4609 26.3617 45.7086 24.6094 43.5547 24.6094H36.2645C37.3931 21.7185 37.8499 18.3157 37.7618 15.2867C37.745 14.7087 37.7229 14.3744 37.6929 14.164C37.6424 12.0539 35.9098 10.3516 33.7891 10.3516C31.6352 10.3516 29.8828 12.1039 29.8828 14.2578V15.2344C29.8828 21.4107 21.9518 24.881 15.9664 26.369C15.5139 25.3345 14.4809 24.6094 13.2812 24.6094H3.51562C2.97637 24.6094 2.53906 25.0467 2.53906 25.5859V49.0234C2.53906 49.5627 2.97637 50 3.51562 50H13.2812C14.4729 50 15.4999 49.2845 15.9571 48.2608C16.4175 48.3792 16.8776 48.4986 17.3375 48.619C20.7472 49.5096 22.6254 50 27.1934 50H37.6953C39.8492 50 41.6016 48.2477 41.6016 46.0938C41.6024 45.3202 41.3722 44.5639 40.9404 43.9221C42.449 43.3944 43.5547 41.953 43.5547 40.2344C43.5547 39.4342 43.3168 38.6847 42.9008 38.0604C44.4027 37.5318 45.5078 36.0938 45.5078 34.375C45.5087 33.6014 45.2785 32.8452 44.8467 32.2033C46.3553 31.6757 47.4609 30.2343 47.4609 28.5156ZM14.2578 47.0703C14.2578 47.6088 13.8197 48.0469 13.2812 48.0469H4.49219V26.5625H13.2812C13.8197 26.5625 14.2578 27.0006 14.2578 27.5391V47.0703ZM43.5547 30.4688H38.6719C38.1326 30.4688 37.6953 30.9061 37.6953 31.4453C37.6953 31.9846 38.1326 32.4219 38.6719 32.4219H41.6016C42.6785 32.4219 43.5547 33.298 43.5547 34.375C43.5547 35.4537 42.6803 36.3281 41.6016 36.3281H36.7188C36.1795 36.3281 35.7422 36.7654 35.7422 37.3047C35.7422 37.8439 36.1795 38.2812 36.7188 38.2812H39.6484C40.7126 38.2812 41.6016 39.1313 41.6016 40.2344C41.6016 41.3131 40.7271 42.1875 39.6484 42.1875H34.7656C34.2264 42.1875 33.7891 42.6248 33.7891 43.1641C33.7891 43.7033 34.2264 44.1406 34.7656 44.1406H37.6953C38.7723 44.1406 39.6484 45.0168 39.6484 46.0938C39.6484 47.1707 38.7723 48.0469 37.6953 48.0469H27.1934C22.8763 48.0469 21.1901 47.6065 17.8311 46.7293C17.2914 46.5879 16.7514 46.4481 16.2109 46.3099V28.3228C23.2781 26.6394 31.8359 22.5304 31.8359 15.2344V14.2578C31.8359 13.1809 32.7121 12.3047 33.7891 12.3047C34.8641 12.3047 35.7401 13.1795 35.7422 14.2548V14.2578C35.7422 14.6822 36.2719 19.8909 34.1479 24.6094H30.8594C30.3201 24.6094 29.8828 25.0467 29.8828 25.5859C29.8828 26.1252 30.3201 26.5625 30.8594 26.5625H43.5547C44.6316 26.5625 45.5078 27.4387 45.5078 28.5156C45.5078 29.5943 44.6334 30.4688 43.5547 30.4688Z" fill="black"/>
<path d="M11.3281 34.3752C10.7889 34.3752 10.3516 34.8125 10.3516 35.3518V43.1643C10.3516 43.7036 10.7889 44.1409 11.3281 44.1409C11.8674 44.1409 12.3047 43.7036 12.3047 43.1643V35.3518C12.3047 34.8125 11.8674 34.3752 11.3281 34.3752ZM25.9766 12.3048H22.0703C21.5311 12.3048 21.0938 12.7421 21.0938 13.2813C21.0938 13.8206 21.5311 14.2579 22.0703 14.2579H25.9766C26.5158 14.2579 26.9531 13.8206 26.9531 13.2813C26.9531 12.7421 26.5158 12.3048 25.9766 12.3048ZM45.5078 12.3048H41.6016C41.0623 12.3048 40.625 12.7421 40.625 13.2813C40.625 13.8206 41.0623 14.2579 41.6016 14.2579H45.5078C46.0471 14.2579 46.4844 13.8206 46.4844 13.2813C46.4844 12.7421 46.0471 12.3048 45.5078 12.3048ZM42.7657 4.30462C42.3843 3.92336 41.7661 3.92336 41.3846 4.30462L38.6229 7.06625C38.2416 7.4476 38.2416 8.06597 38.6229 8.44742C39.0045 8.82877 39.6226 8.82867 40.0041 8.44742L42.7657 5.68578C43.1471 5.30443 43.1471 4.68606 42.7657 4.30462ZM28.9552 7.06625L26.1936 4.30462C25.8121 3.92336 25.1939 3.92336 24.8124 4.30462C24.4311 4.68597 24.4311 5.30433 24.8124 5.68578L27.574 8.44742C27.9557 8.82877 28.5737 8.82867 28.9552 8.44742C29.3365 8.06607 29.3365 7.4477 28.9552 7.06625Z" fill="black"/>
</svg>
