<svg width="50" height="50" viewBox="0 0 50 50" fill="none" xmlns="http://www.w3.org/2000/svg">
<g clip-path="url(#clip0_1_60)">
<path d="M49.0676 41.3875L40.0416 32.6289C39.4568 32.0614 38.685 31.7573 37.8669 31.7679C37.5994 31.7719 37.3337 31.8107 37.0763 31.8833L33.0015 27.9293C36.2264 23.0514 36.8785 16.8508 34.7439 11.4096L36.1422 9.23081C36.5027 9.31837 36.8724 9.36269 37.2433 9.36285C39.8259 9.36285 41.9269 7.26177 41.9269 4.67924C41.9269 2.09681 39.8259 -0.00417249 37.2433 -0.00417249C34.6609 -0.00417249 32.56 2.09681 32.56 4.67924C32.56 5.74799 32.9205 6.73354 33.5253 7.52261L33.0918 8.19819C32.7424 7.66009 32.3646 7.14094 31.9601 6.64292C28.928 2.91234 24.6248 0.585868 19.843 0.0918239C15.0609 -0.402123 10.3732 0.995537 6.6426 4.02748C2.91194 7.05932 0.585281 11.3627 0.0913362 16.1445C-0.350167 20.4183 0.720632 24.6167 3.1176 28.1241C1.30061 28.7687 -0.00456213 30.5038 -0.00456213 32.539C-0.00456213 35.1215 2.09641 37.2226 4.67883 37.2226C6.85568 37.2226 8.69035 35.7296 9.21301 33.7139C11.322 34.8924 13.6685 35.6404 16.1439 35.8961C16.7739 35.9613 17.4022 35.9935 18.0271 35.9935C21.5172 35.9934 24.8949 34.9866 27.8158 33.0765L31.8541 36.9539C31.679 37.3551 31.5921 37.7892 31.5993 38.2268C31.6116 39.0445 31.9405 39.8073 32.5252 40.3746L41.5513 49.1334C42.1442 49.7085 42.9123 49.9947 43.6796 49.9947C44.4778 49.9947 45.2752 49.6848 45.8736 49.0682L49.1324 45.7098C50.3061 44.5003 50.277 42.5616 49.0676 41.3875ZM37.2433 3.12084C38.1027 3.12084 38.8019 3.81996 38.8019 4.67934C38.8019 5.53881 38.1027 6.23803 37.2433 6.23803C36.3839 6.23803 35.6848 5.53881 35.6848 4.67934C35.6848 3.81996 36.3839 3.12084 37.2433 3.12084ZM34.6061 33.8406L33.8911 34.5776L30.2977 31.1274C30.5556 30.8862 30.8055 30.6393 31.0461 30.3861L34.6061 33.8406ZM3.19973 16.4656C3.60793 12.514 5.53049 8.95796 8.6134 6.45249C11.2902 4.27689 14.5629 3.11976 17.9654 3.11976C18.4816 3.11976 19.0013 3.14642 19.5217 3.20023C23.4732 3.60853 27.0293 5.5311 29.5349 8.61392C30.1742 9.39999 30.7316 10.2493 31.1984 11.1486L25.7157 19.6921C25.2386 19.5324 24.7387 19.4509 24.2355 19.451C23.6889 19.4505 23.1464 19.5461 22.6329 19.7336L19.5596 16.4306C19.8752 15.7897 20.039 15.0847 20.0384 14.3703C20.0384 11.7879 17.9373 9.68687 15.3548 9.68687C12.7724 9.68687 10.6714 11.7879 10.6714 14.3703C10.6714 15.4774 11.0584 16.4954 11.703 17.2979L5.88918 26.6347C3.7762 23.6831 2.82346 20.1075 3.19973 16.4656ZM24.2356 22.5758C25.095 22.5758 25.7942 23.2749 25.7942 24.1343C25.7942 24.9937 25.095 25.693 24.2356 25.693C23.3763 25.693 22.6772 24.9937 22.6772 24.1343C22.6771 23.2749 23.3763 22.5758 24.2356 22.5758ZM13.7964 14.3702C13.7964 13.5108 14.4955 12.8117 15.3549 12.8117C16.2144 12.8117 16.9136 13.5108 16.9136 14.3702C16.9136 15.2296 16.2144 15.9288 15.3549 15.9288C14.4954 15.9289 13.7964 15.2297 13.7964 14.3702ZM4.67893 34.0977C3.81955 34.0977 3.12043 33.3985 3.12043 32.539C3.12043 31.6796 3.81955 30.9805 4.67893 30.9805C5.5383 30.9805 6.23752 31.6796 6.23752 32.539C6.23752 33.3985 5.5383 34.0977 4.67893 34.0977ZM18.0213 32.8682C17.5052 32.8682 16.9856 32.8415 16.465 32.7877C13.2952 32.4603 10.3804 31.1574 8.05773 29.0638L14.358 18.9459C14.6855 19.0174 15.0196 19.0535 15.3548 19.0537C16.0358 19.0542 16.7087 18.9052 17.3259 18.6173L20.2198 21.7273C19.7822 22.4538 19.5513 23.2861 19.5523 24.1343C19.5523 26.7168 21.6532 28.8179 24.2356 28.8179C26.8182 28.8179 28.9191 26.7168 28.9191 24.1343C28.9198 23.2455 28.666 22.3751 28.1877 21.626L32.5299 14.8596C33.6628 20.1562 31.857 25.8914 27.3733 29.5354C24.6967 31.711 21.4239 32.8683 18.0213 32.8682ZM43.6787 46.843L34.7505 38.1793L37.9141 34.9189L46.8424 43.5826L43.6787 46.843Z" fill="black"/>
</g>
<defs>
<clipPath id="clip0_1_60">
<rect width="50" height="50" fill="white"/>
</clipPath>
</defs>
</svg>
